<svg id="Capa_1" data-name="Capa 1" xmlns="http://www.w3.org/2000/svg" viewBox="0 0 109 46.03"><defs><style>.cls-1{fill:#fff;}</style></defs><title>speaker</title><path class="cls-1" d="M46.41,22l7.3-7.29a1,1,0,1,0-1.42-1.41L45,20.62l-7.29-7.29a1,1,0,1,0-1.42,1.41L43.59,22l-7.3,7.3a1,1,0,0,0,1.41,1.41h0L45,23.45l7.29,7.29a1,1,0,0,0,1.41,0h0a1,1,0,0,0,0-1.41Z"/><path class="cls-1" d="M28.4.43a3,3,0,0,0-3.09,0l-.13.09L11.63,12H1a1,1,0,0,0-1,1V32a1,1,0,0,0,1,1H11.61L25.15,45.47l.16.12A3.17,3.17,0,0,0,26.9,46a3,3,0,0,0,1.5-.4A3.1,3.1,0,0,0,30,42.88V3.19A3.13,3.13,0,0,0,28.4.43ZM28,42.88a1.15,1.15,0,0,1-.58,1,1,1,0,0,1-1,0L13,31.59V27a1,1,0,0,0-2,0v4H2V14h9v4a1,1,0,0,0,2,0V13.5L26.4,2.16a1,1,0,0,1,1,0,1.16,1.16,0,0,1,.58,1Z"/><path class="cls-1" d="M82.4.43a3,3,0,0,0-3.09,0l-.13.09L65.63,12H55a1,1,0,0,0-1,1V32a1,1,0,0,0,1,1H65.61L79.15,45.46a1,1,0,0,0,.16.12A3.08,3.08,0,0,0,80.9,46a3,3,0,0,0,1.5-.36,3.11,3.11,0,0,0,1.6-2.8V3.18A3.1,3.1,0,0,0,82.4.43ZM82,42.87a1.15,1.15,0,0,1-.58,1,1,1,0,0,1-1,0L67,31.58V27a1,1,0,0,0-2,0v4H56V14h9v4a1,1,0,0,0,2,0V13.49L80.41,2.15a1,1,0,0,1,1,0,1.14,1.14,0,0,1,.58,1Z"/><path class="cls-1" d="M95.78,4.56a1,1,0,0,0-.64,1.9,17.48,17.48,0,0,1,0,33.11,1,1,0,0,0,.33,1.94,1.13,1.13,0,0,0,.32,0,19.49,19.49,0,0,0,0-36.9Z"/><path class="cls-1" d="M100,23a13.57,13.57,0,0,0-9.75-13,1,1,0,0,0-1.2.75,1,1,0,0,0,.65,1.17A11.49,11.49,0,0,1,89.7,34,1,1,0,1,0,90,36h0a1.22,1.22,0,0,0,.27,0A13.54,13.54,0,0,0,100,23Z"/></svg>